<?xml version="1.0" encoding="UTF-8" standalone="no"?>
<!-- Created with Inkscape (http://www.inkscape.org/) -->

<svg
   xmlns:dc="http://purl.org/dc/elements/1.1/"
   xmlns:cc="http://creativecommons.org/ns#"
   xmlns:rdf="http://www.w3.org/1999/02/22-rdf-syntax-ns#"
   xmlns:svg="http://www.w3.org/2000/svg"
   xmlns="http://www.w3.org/2000/svg"
   xmlns:sodipodi="http://sodipodi.sourceforge.net/DTD/sodipodi-0.dtd"
   xmlns:inkscape="http://www.inkscape.org/namespaces/inkscape"
   width="162.40231"
   height="155.59798"
   id="svg2"
   version="1.1"
   inkscape:version="0.92.4 5da689c313, 2019-01-14"
   sodipodi:docname="logo.svg">
  <title
     id="title33">Fox Logo</title>
  <defs
     id="defs4" />
  <sodipodi:namedview
     id="base"
     pagecolor="#ffffff"
     bordercolor="#666666"
     borderopacity="1.0"
     inkscape:pageopacity="0.0"
     inkscape:pageshadow="2"
     inkscape:zoom="2.8284272"
     inkscape:cx="174.2431"
     inkscape:cy="70.046247"
     inkscape:document-units="px"
     inkscape:current-layer="layer1"
     showgrid="false"
     inkscape:window-width="1920"
     inkscape:window-height="1147"
     inkscape:window-x="0"
     inkscape:window-y="0"
     inkscape:window-maximized="1"
     fit-margin-top="0"
     fit-margin-left="0"
     fit-margin-right="0"
     fit-margin-bottom="0" />
  <metadata
     id="metadata7">
    <rdf:RDF>
      <cc:Work
         rdf:about="">
        <dc:format>image/svg+xml</dc:format>
        <dc:type
           rdf:resource="http://purl.org/dc/dcmitype/StillImage" />
        <dc:title>Fox Logo</dc:title>
        <dc:date>January 21, 2016</dc:date>
        <dc:creator>
          <cc:Agent>
            <dc:title>Zachary Lazzara</dc:title>
          </cc:Agent>
        </dc:creator>
        <dc:rights>
          <cc:Agent>
            <dc:title>©2016 Zachary Lazzara</dc:title>
          </cc:Agent>
        </dc:rights>
      </cc:Work>
    </rdf:RDF>
  </metadata>
  <g
     transform="translate(-359.62651,-374.87425)"
     id="layer1-1"
     inkscape:label="Layer 1"
     style="fill:#ffffff;fill-opacity:1" />
  <g
     inkscape:label="Layer 1"
     inkscape:groupmode="layer"
     id="layer1"
     transform="translate(-359.62516,-374.86344)">
    <g
       id="g3980"
       transform="matrix(9.7251112,0,0,9.7251112,-2866.7761,-3954.7002)">
      <path
         style="fill:#ffffff;fill-opacity:1;stroke:#000000;stroke-width:0.04149077px;stroke-linecap:butt;stroke-linejoin:miter;stroke-opacity:1"
         d="m 340.11205,447.44655 c 0.34997,0.0578 0.21998,0.13852 0.67174,-0.21299 3.44811,-2.68296 6.78745,-1.90258 6.78745,-1.90258 0.10733,0.63939 0.70521,3.47556 -1.95817,6.96813 -0.90895,1.63798 5.6411,0.21239 1.30668,2.88374 -0.24905,0.1535 2.16497,-0.089 -2.46396,2.30916 -0.30737,0.15925 1.03457,0.39238 0.66225,0.5758 -0.0906,0.0446 -2.07579,0.59525 -2.62957,1.07146 -0.46391,0.39892 -1.13871,1.63474 -1.64068,1.73131 -0.36039,0.0693 -0.33182,0.22689 -0.73247,0.31335 l -0.009,0 c -0.40065,-0.0865 -0.37209,-0.24401 -0.73247,-0.31335 -0.50197,-0.0966 -1.17678,-1.33239 -1.64068,-1.73131 -0.55378,-0.47621 -2.53898,-1.02683 -2.62957,-1.07146 -0.37232,-0.18342 0.96962,-0.41655 0.66225,-0.5758 -4.62894,-2.39821 -2.21491,-2.15566 -2.46396,-2.30916 -4.33443,-2.67135 2.21563,-1.24576 1.30668,-2.88374 -2.66338,-3.49257 -2.0655,-6.32874 -1.95817,-6.96813 0,0 3.33934,-0.78038 6.78744,1.90258 0.45177,0.35151 0.32178,0.27076 0.67175,0.21299 z"
         id="path2985-9-7"
         inkscape:connector-curvature="0"
         sodipodi:nodetypes="csccsssssccsssssccscc"
         transform="translate(-0.00135,-0.01081)" />
      <path
         inkscape:connector-curvature="0"
         id="path2985-9"
         d="m 333.84392,445.22506 c -0.76883,-0.004 -1.21875,0.0937 -1.21875,0.0937 -0.10733,0.63939 -0.72588,3.47618 1.9375,6.96875 0.90895,1.63798 -5.61568,0.20365 -1.28125,2.875 0.008,0.005 -0.003,0.0272 0,0.0312 -0.23101,0.0898 -1.58157,0.18283 2.46875,2.28125 0.30737,0.15925 -1.05982,0.41033 -0.6875,0.59375 0.0906,0.0446 2.07122,0.58629 2.625,1.0625 0.4639,0.39892 1.15428,1.62215 1.65625,1.71875 0.36038,0.0693 0.3181,0.226 0.71875,0.3125 l 0.0312,0 c 0.003,-4.9e-4 0.0282,10e-4 0.0312,0 l 0.0312,0 c 0.40065,-0.0865 0.35837,-0.2432 0.71875,-0.3125 0.50197,-0.0966 1.19235,-1.31983 1.65625,-1.71875 0.55379,-0.47621 2.5344,-1.0179 2.625,-1.0625 0.37232,-0.18342 -0.99487,-0.4345 -0.6875,-0.59375 4.05032,-2.09842 2.69977,-2.19145 2.46875,-2.28125 0.003,-0.004 -0.008,-0.0263 0,-0.0312 4.33443,-2.67135 -2.1902,-1.23702 -1.28125,-2.875 2.66339,-3.49257 2.04483,-6.32936 1.9375,-6.96875 0,0 -0.44992,-0.0978 -1.21875,-0.0937 -1.28138,0.007 -3.40744,0.32315 -5.5625,2 -0.45177,0.35151 -0.33753,0.27655 -0.6875,0.21875 -0.003,1.6e-4 0.003,0.028 0,0.0312 -0.004,-0.006 -0.027,-0.031 -0.0312,-0.0312 -0.34997,0.0578 -0.23573,0.13276 -0.6875,-0.21875 -2.15506,-1.67685 -4.28112,-1.99282 -5.5625,-2 z m 0.0625,0.4375 c 2.01157,0.0361 3.29166,0.58529 5.1875,2.09375 0,0 -2.87675,0.44148 -3.9375,4.03125 -2.13572,-2.0766 -2.33994,-4.82975 -2.1875,-6.09375 0.31981,-0.0137 0.65013,-0.0364 0.9375,-0.0312 z m 12.4375,0 c 0.28736,-0.005 0.58643,0.0176 0.90625,0.0312 0.15244,1.264 -0.0518,4.01715 -2.1875,6.09375 -1.06075,-3.58977 -3.9375,-4.03125 -3.9375,-4.03125 1.89583,-1.50846 3.20718,-2.05765 5.21875,-2.09375 z m -11.15625,7.15625 c 0.43941,0.20962 0.65819,0.95503 -0.78125,1.3125 2.86359,1.64525 0.18887,0.92291 0.28125,1.375 4.87459,2.70692 3.66499,3.48616 4.9375,5.0625 -0.59661,-0.21689 -1.19711,-0.50471 -1.78125,-1.59375 -0.8722,-0.4645 -1.71931,-0.76989 -2.5625,-1.03125 0.22325,-0.11454 0.23109,-0.0561 0.65625,-0.34375 0.0939,-0.12663 0.0134,-0.17984 -0.0625,-0.25 l -1.96875,-1.125 c -0.90453,-0.63905 -0.73168,-0.59606 -0.84375,-0.75 0.3456,-0.13104 0.54849,-0.0604 0.5,-0.25 -0.0792,-0.30961 -1.35857,-0.92982 -1.53125,-1.375 -0.0805,-0.43117 2.10244,-0.12327 3.15625,-1.03125 z m 9.84375,0 c 1.05381,0.90798 3.268,0.60008 3.1875,1.03125 -0.17268,0.44518 -1.4833,1.06539 -1.5625,1.375 -0.0485,0.1896 0.1544,0.11896 0.5,0.25 -0.11207,0.15394 0.0608,0.11095 -0.84375,0.75 l -1.9375,1.125 c -0.0759,0.0702 -0.18765,0.12337 -0.0937,0.25 0.42516,0.28761 0.433,0.22921 0.65625,0.34375 -0.84319,0.26136 -1.65905,0.56675 -2.53125,1.03125 -0.58414,1.08904 -1.21589,1.37686 -1.8125,1.59375 1.27251,-1.57634 0.0629,-2.35558 4.9375,-5.0625 0.0924,-0.45209 -2.58234,0.27025 0.28125,-1.375 -1.43944,-0.35747 -1.22066,-1.10288 -0.78125,-1.3125 z m -8.28125,0.125 1.09375,0 c 0.5777,0.0741 1.25,0.5 1.25,0.5 l -0.53125,0.46875 c -0.95519,-0.0246 -1.04662,0.006 -1.8125,-0.96875 z m 5.625,0 1.09375,0 c -0.76587,0.97475 -0.85731,0.94415 -1.8125,0.96875 l -0.53125,-0.46875 c 0,0 0.6723,-0.4259 1.25,-0.5 z"
         style="fill:#000000;fill-opacity:1;fill-rule:nonzero;stroke:#000000;stroke-width:0.04149077px;stroke-linecap:butt;stroke-linejoin:miter;stroke-opacity:1" />
    </g>
  </g>
</svg>
