<?xml version="1.0" encoding="UTF-8" standalone="no"?>
<!-- Created with Inkscape (http://www.inkscape.org/) -->

<svg
   width="415.47556"
   height="415.47556"
   id="svg2"
   version="1.1"
   inkscape:version="1.1 (c4e8f9e, 2021-05-24)"
   sodipodi:docname="Zukaro's Emblem White.svg"
   inkscape:export-filename="/Users/zacharylazzara/zukaro.png"
   inkscape:export-xdpi="7.3939366"
   inkscape:export-ydpi="7.3939366"
   xmlns:inkscape="http://www.inkscape.org/namespaces/inkscape"
   xmlns:sodipodi="http://sodipodi.sourceforge.net/DTD/sodipodi-0.dtd"
   xmlns="http://www.w3.org/2000/svg"
   xmlns:svg="http://www.w3.org/2000/svg"
   xmlns:rdf="http://www.w3.org/1999/02/22-rdf-syntax-ns#"
   xmlns:cc="http://creativecommons.org/ns#"
   xmlns:dc="http://purl.org/dc/elements/1.1/">
  <title
     id="title3256">GalaxyFox (Black, Logo)</title>
  <defs
     id="defs4" />
  <sodipodi:namedview
     id="base"
     pagecolor="#ffffff"
     bordercolor="#666666"
     borderopacity="1.0"
     inkscape:pageopacity="0.0"
     inkscape:pageshadow="2"
     inkscape:zoom="1"
     inkscape:cx="91.5"
     inkscape:cy="238.5"
     inkscape:document-units="px"
     inkscape:current-layer="layer1-31"
     showgrid="false"
     inkscape:window-width="1792"
     inkscape:window-height="987"
     inkscape:window-x="0"
     inkscape:window-y="25"
     inkscape:window-maximized="1"
     fit-margin-top="0"
     fit-margin-left="0"
     fit-margin-right="0"
     fit-margin-bottom="0"
     inkscape:showpageshadow="false"
     guidetolerance="20"
     objecttolerance="20"
     inkscape:snap-bbox="true"
     inkscape:bbox-paths="false"
     inkscape:snap-midpoints="false"
     inkscape:snap-others="true"
     inkscape:snap-to-guides="true"
     showguides="true"
     inkscape:guide-bbox="true"
     inkscape:snap-smooth-nodes="true"
     inkscape:object-nodes="true"
     inkscape:pagecheckerboard="true" />
  <metadata
     id="metadata7">
    <rdf:RDF>
      <cc:Work
         rdf:about="">
        <dc:format>image/svg+xml</dc:format>
        <dc:type
           rdf:resource="http://purl.org/dc/dcmitype/StillImage" />
        <dc:title>GalaxyFox (Black, Logo)</dc:title>
        <dc:rights>
          <cc:Agent>
            <dc:title>©2014 Zachary Lazzara</dc:title>
          </cc:Agent>
        </dc:rights>
        <dc:date>May 5th 2014</dc:date>
        <dc:creator>
          <cc:Agent>
            <dc:title>Zachary Lazzara</dc:title>
          </cc:Agent>
        </dc:creator>
        <dc:subject>
          <rdf:Bag>
            <rdf:li>GalaxyFox</rdf:li>
            <rdf:li>Logo</rdf:li>
          </rdf:Bag>
        </dc:subject>
        <dc:description>A black version of the GalaxyFox logo.</dc:description>
      </cc:Work>
    </rdf:RDF>
  </metadata>
  <g
     inkscape:label="Layer 1"
     inkscape:groupmode="layer"
     id="layer1"
     transform="translate(-72.989403,-402.04164)">
    <g
       transform="translate(70.10837,55.859753)"
       id="layer1-31"
       inkscape:label="Layer 1">
      <g
         id="g160"
         transform="translate(0,54.407078)">
        <g
           id="g3373"
           transform="translate(5.0591914,-15.031642)"
           style="fill:#ffffff">
          <g
             style="fill:#ffffff"
             id="layer1-1"
             inkscape:label="Layer 1"
             transform="translate(-125.58579,39.779942)">
            <g
               style="fill:#ffffff"
               inkscape:label="GalaxyFox"
               id="layer1-3"
               transform="translate(163.52793,213.3723)">
              <path
                 style="fill:#ffffff;fill-opacity:1"
                 d="m 84.992534,144.69797 v 9.875 9.84375 l 11,7.28125 c 6.049996,4.00028 10.999996,7.86045 10.999996,8.5625 0,0.8689 -4.96975,-0.37045 -15.531246,-3.875 -12.1368,-4.02721 -15.893001,-4.91211 -17.25,-4.0625 -3.0853,1.93167 -2.57115,6.79273 1.53125,14.5625 0.203,0.38445 -7.62435,-1.97805 -17.40625,-5.25 -9.781801,-3.27196 -18.582801,-5.9375 -19.562501,-5.9375 -1.5353,0 -2.64865,1.02149 -1.78125,6.875 1.29704,8.7529 1.69395,9.2486 9.718751,13.53125 5.068489,2.70494 6.04025,2.13414 8.71875,7.25 5.009899,9.56885 7.346699,10.88696 35.9375,20.125 14.079696,4.54937 25.624996,8.72938 25.624996,9.28125 0,0.55186 -1.63175,4.16647 -3.59375,8.0625 -2.6491,5.26045 -3.6974,8.86861 -4.125,13.96875 -0.7555,9.01143 0.36245,9.50138 10.34375,4.5625 4.0638,-2.01082 7.5321,-3.65625 7.6875,-3.65625 0.1555,0 -1.6588,5.39765 -1.875,7.25 -0.2208,1.8908 3.79031,4.32671 4.03125,6.28125 0.35718,2.89737 1.35526,0.63812 -3.59375,10.5 -6.9766,13.90254 -7.69065,18.96875 -0.34375,18.96875 2.9376,0 3.7777,-0.90913 12.25001,-13.65625 9.7343,-14.64585 11.08875,-14.35578 12.59375,-5.40625 1.4803,8.80305 2.79335,13.89593 6.21875,17.6875 4.1415,3.52904 1.39208,1.78428 7.3125,5.53125 1.23916,0.78425 3.36024,1.48663 3.6875,1.53125 0.004,6.1e-4 0.0275,-3.7e-4 0.0312,0 0.004,-3.7e-4 0.0273,6.1e-4 0.0312,0 0.32726,-0.0446 2.44834,-0.747 3.6875,-1.53125 5.92042,-3.74697 3.171,-2.00221 7.3125,-5.53125 3.4254,-3.79157 4.73845,-8.88445 6.21875,-17.6875 1.505,-8.94953 2.85945,-9.2396 12.59375,5.40625 8.4723,12.74712 9.3124,13.65625 12.25,13.65625 7.3469,0 6.63285,-5.06621 -0.34375,-18.96875 -4.94901,-9.86188 -3.95093,-7.60263 -3.59375,-10.5 0.24094,-1.95454 4.25205,-4.39045 4.03125,-6.28125 -0.2162,-1.85235 -2.0305,-7.25 -1.875,-7.25 0.1554,0 3.6237,1.64543 7.6875,3.65625 9.9813,4.93888 11.09925,4.44893 10.34375,-4.5625 -0.4276,-5.10014 -1.4759,-8.7083 -4.125,-13.96875 -1.962,-3.89603 -3.59375,-7.51064 -3.59375,-8.0625 0,-0.55187 11.5453,-4.73188 25.625,-9.28125 28.5908,-9.23804 30.9276,-10.55615 35.9375,-20.125 2.6785,-5.11586 3.65026,-4.54506 8.71875,-7.25 8.02481,-4.28265 8.42171,-4.77835 9.71875,-13.53125 0.8674,-5.85351 -0.24595,-6.875 -1.78125,-6.875 -0.97971,0 -9.7807,2.66554 -19.5625,5.9375 -9.7819,3.27195 -17.60925,5.63445 -17.40625,5.25 4.1024,-7.76977 4.61655,-12.63083 1.53125,-14.5625 -1.357,-0.84961 -5.1132,0.0353 -17.25,4.0625 -10.5615,3.50455 -15.53125,4.7439 -15.53125,3.875 0,-0.70205 4.95,-4.56222 11,-8.5625 l 11,-7.28125 v -9.84375 -9.875 l -4.3125,2.46875 c -2.52106,1.43366 -6.93029,4.10658 -32.46875,19.375 -8.85717,5.29534 -16.50651,9.84682 -22,13.0625 -5.49348,3.21569 -10.4702,5.625 -10.71875,5.625 -0.5364,0 -1.12795,-1.60992 -1.5,-2.9375 -0.37205,-1.32757 -0.61835,-4.1228 -0.25,-4.71875 0.14085,-0.22793 5.27367,-4.52879 5.5625,-6.4375 0.28884,-1.90871 -4.42255,-1.23777 -4.125,-3.90625 0.10677,-2.32036 2.19865,-3.81097 2.21875,-6 0.0201,-2.18902 -0.1567,-4.04519 -0.84375,-5.09375 -1.9253,-2.93843 -4.53699,-3.16407 -5.25,-0.4375 -0.37485,1.43344 -0.97896,3.07292 -1.46875,3.5625 -0.2715,0.27138 -0.1991,0.49298 -1.375,-1.5 -0.65064,-1.10275 -1.25769,-1.75434 -2.125,-2.625 -0.86732,-0.87065 -2.4736,-4.28125 -3.125,-4.28125 -0.1987,0 -0.57832,-0.4848 -0.8125,-0.5 -0.008,-6.1e-4 -0.0232,-5.2e-4 -0.0312,0 -0.008,-5.2e-4 -0.0237,-6.1e-4 -0.0312,0 -0.23418,0.0152 -0.6138,0.5 -0.8125,0.5 -0.6514,0 -2.25768,3.4106 -3.125,4.28125 -0.86731,0.87066 -1.47436,1.52225 -2.125,2.625 -1.1759,1.99298 -1.1035,1.77138 -1.375,1.5 -0.48979,-0.48958 -1.0939,-2.12906 -1.46875,-3.5625 -0.71301,-2.72657 -3.3247,-2.50093 -5.25,0.4375 -0.68705,1.04856 -0.86382,2.90473 -0.84375,5.09375 0.0201,2.18903 2.11198,3.67964 2.21875,6 0.29755,2.66848 -4.41384,1.99754 -4.125,3.90625 0.28883,1.90871 5.42165,6.20957 5.5625,6.4375 0.36835,0.59595 0.12205,3.39118 -0.25,4.71875 -0.37205,1.32758 -0.9636,2.9375 -1.5,2.9375 -0.24855,0 -5.22527,-2.40931 -10.71875,-5.625 -5.49349,-3.21568 -13.14284,-7.76716 -22.00001,-13.0625 -25.538456,-15.26842 -29.947686,-17.94134 -32.468746,-19.375 z"
                 id="path3279"
                 inkscape:connector-curvature="0" />
            </g>
          </g>
        </g>
        <path
           sodipodi:type="star"
           style="fill:none;stroke:#ffffff;stroke-width:15.4;stroke-miterlimit:4;stroke-dasharray:none;stroke-opacity:1"
           id="path281"
           inkscape:flatsided="true"
           sodipodi:sides="3"
           sodipodi:cx="109.11914"
           sodipodi:cy="-179.27673"
           sodipodi:r1="314.24731"
           sodipodi:r2="157.12366"
           sodipodi:arg1="1.5707963"
           sodipodi:arg2="2.6179939"
           inkscape:rounded="0"
           inkscape:randomized="0"
           d="m 109.11915,134.97058 -272.14617,-471.37096 544.29231,-2e-5 z"
           transform="matrix(0.72767143,0,0,0.62018077,131.21594,559.58634)"
           inkscape:transform-center-y="48.722534"
           inkscape:transform-center-x="6.8349746e-06" />
      </g>
    </g>
    <g
       transform="matrix(-1,0,0,1,545.85959,55.209649)"
       id="layer1-31-9"
       inkscape:label="Layer 1">
      <g
         transform="translate(-91.601496,51.069968)"
         inkscape:label="Layer 1"
         id="layer1-1-8">
        <g
           transform="translate(163.52793,213.3723)"
           id="layer1-3-7"
           inkscape:label="GalaxyFox" />
      </g>
    </g>
    <g
       transform="matrix(-1,0,0,1,545.85004,55.218545)"
       id="layer1-31-8"
       inkscape:label="Layer 1">
      <g
         transform="translate(-91.601496,51.069968)"
         inkscape:label="Layer 1"
         id="layer1-1-1">
        <g
           transform="translate(163.52793,213.3723)"
           id="layer1-3-0"
           inkscape:label="GalaxyFox" />
      </g>
    </g>
    <g
       transform="matrix(-1,0,0,1,545.73494,55.377324)"
       id="layer1-31-4"
       inkscape:label="Layer 1">
      <g
         transform="translate(-91.601496,51.069968)"
         inkscape:label="Layer 1"
         id="layer1-1-0">
        <g
           transform="translate(163.52793,213.3723)"
           id="layer1-3-4"
           inkscape:label="GalaxyFox" />
      </g>
    </g>
    <g
       transform="matrix(-1,0,0,1,545.73608,55.859753)"
       id="layer1-31-81"
       inkscape:label="Layer 1">
      <g
         transform="translate(-91.601496,51.069968)"
         inkscape:label="Layer 1"
         id="layer1-1-4">
        <g
           transform="translate(163.52793,213.3723)"
           id="layer1-3-8"
           inkscape:label="GalaxyFox" />
      </g>
    </g>
  </g>
</svg>
